<svg id="visual" viewBox="0 0 960 300" width="960" height="300" xmlns="http://www.w3.org/2000/svg" xmlns:xlink="http://www.w3.org/1999/xlink" version="1.1"><rect x="0" y="0" width="960" height="300" fill="#0000ff"></rect><path d="M0 112L17.8 105.7C35.7 99.3 71.3 86.7 106.8 84C142.3 81.3 177.7 88.7 213.2 85.3C248.7 82 284.3 68 320 63.3C355.7 58.7 391.3 63.3 426.8 67.5C462.3 71.7 497.7 75.3 533.2 76.3C568.7 77.3 604.3 75.7 640 69.2C675.7 62.7 711.3 51.3 746.8 60.2C782.3 69 817.7 98 853.2 108.3C888.7 118.7 924.3 110.3 942.2 106.2L960 102L960 301L942.2 301C924.3 301 888.7 301 853.2 301C817.7 301 782.3 301 746.8 301C711.3 301 675.7 301 640 301C604.3 301 568.7 301 533.2 301C497.7 301 462.3 301 426.8 301C391.3 301 355.7 301 320 301C284.3 301 248.7 301 213.2 301C177.7 301 142.3 301 106.8 301C71.3 301 35.7 301 17.8 301L0 301Z" fill="#0000af"></path><path d="M0 94L17.8 95C35.7 96 71.3 98 106.8 111.7C142.3 125.3 177.7 150.7 213.2 148.3C248.7 146 284.3 116 320 112C355.7 108 391.3 130 426.8 135.3C462.3 140.7 497.7 129.3 533.2 125.3C568.7 121.3 604.3 124.7 640 130.7C675.7 136.7 711.3 145.3 746.8 141.8C782.3 138.3 817.7 122.7 853.2 124.7C888.7 126.7 924.3 146.3 942.2 156.2L960 166L960 301L942.2 301C924.3 301 888.7 301 853.2 301C817.7 301 782.3 301 746.8 301C711.3 301 675.7 301 640 301C604.3 301 568.7 301 533.2 301C497.7 301 462.3 301 426.8 301C391.3 301 355.7 301 320 301C284.3 301 248.7 301 213.2 301C177.7 301 142.3 301 106.8 301C71.3 301 35.7 301 17.8 301L0 301Z" fill="#7f0095"></path><path d="M0 166L17.8 168.2C35.7 170.3 71.3 174.7 106.8 169.2C142.3 163.7 177.7 148.3 213.2 140.2C248.7 132 284.3 131 320 131.3C355.7 131.7 391.3 133.3 426.8 141.7C462.3 150 497.7 165 533.2 173.3C568.7 181.7 604.3 183.3 640 179.5C675.7 175.7 711.3 166.3 746.8 160.5C782.3 154.7 817.7 152.3 853.2 159.5C888.7 166.7 924.3 183.3 942.2 191.7L960 200L960 301L942.2 301C924.3 301 888.7 301 853.2 301C817.7 301 782.3 301 746.8 301C711.3 301 675.7 301 640 301C604.3 301 568.7 301 533.2 301C497.7 301 462.3 301 426.8 301C391.3 301 355.7 301 320 301C284.3 301 248.7 301 213.2 301C177.7 301 142.3 301 106.8 301C71.3 301 35.7 301 17.8 301L0 301Z" fill="#a9007e"></path><path d="M0 210L17.8 205.7C35.7 201.3 71.3 192.7 106.8 190.7C142.3 188.7 177.7 193.3 213.2 195.3C248.7 197.3 284.3 196.7 320 190.2C355.7 183.7 391.3 171.3 426.8 173.7C462.3 176 497.7 193 533.2 202.5C568.7 212 604.3 214 640 211.5C675.7 209 711.3 202 746.8 198.7C782.3 195.3 817.7 195.7 853.2 191.5C888.7 187.3 924.3 178.7 942.2 174.3L960 170L960 301L942.2 301C924.3 301 888.7 301 853.2 301C817.7 301 782.3 301 746.8 301C711.3 301 675.7 301 640 301C604.3 301 568.7 301 533.2 301C497.7 301 462.3 301 426.8 301C391.3 301 355.7 301 320 301C284.3 301 248.7 301 213.2 301C177.7 301 142.3 301 106.8 301C71.3 301 35.7 301 17.8 301L0 301Z" fill="#c1006a"></path><path d="M0 192L17.8 198.8C35.7 205.7 71.3 219.3 106.8 224.7C142.3 230 177.7 227 213.2 225.3C248.7 223.7 284.3 223.3 320 220.7C355.7 218 391.3 213 426.8 217.3C462.3 221.7 497.7 235.3 533.2 237.5C568.7 239.7 604.3 230.3 640 221.3C675.7 212.3 711.3 203.7 746.8 209.3C782.3 215 817.7 235 853.2 237C888.7 239 924.3 223 942.2 215L960 207L960 301L942.2 301C924.3 301 888.7 301 853.2 301C817.7 301 782.3 301 746.8 301C711.3 301 675.7 301 640 301C604.3 301 568.7 301 533.2 301C497.7 301 462.3 301 426.8 301C391.3 301 355.7 301 320 301C284.3 301 248.7 301 213.2 301C177.7 301 142.3 301 106.8 301C71.3 301 35.7 301 17.8 301L0 301Z" fill="#d20055"></path><path d="M0 263L17.8 258C35.7 253 71.3 243 106.8 245.2C142.3 247.3 177.7 261.7 213.2 263C248.7 264.3 284.3 252.7 320 245.5C355.7 238.3 391.3 235.7 426.8 236.3C462.3 237 497.7 241 533.2 248.3C568.7 255.7 604.3 266.3 640 271C675.7 275.7 711.3 274.3 746.8 268.3C782.3 262.3 817.7 251.7 853.2 248C888.7 244.3 924.3 247.7 942.2 249.3L960 251L960 301L942.2 301C924.3 301 888.7 301 853.2 301C817.7 301 782.3 301 746.8 301C711.3 301 675.7 301 640 301C604.3 301 568.7 301 533.2 301C497.7 301 462.3 301 426.8 301C391.3 301 355.7 301 320 301C284.3 301 248.7 301 213.2 301C177.7 301 142.3 301 106.8 301C71.3 301 35.7 301 17.8 301L0 301Z" fill="#dc143c"></path></svg>