<svg id="visual" viewBox="0 0 960 300" width="960" height="300" xmlns="http://www.w3.org/2000/svg" xmlns:xlink="http://www.w3.org/1999/xlink" version="1.1"><rect x="0" y="0" width="960" height="300" fill="#208c22"></rect><path d="M0 149L17.8 143C35.7 137 71.3 125 106.8 122.5C142.3 120 177.7 127 213.2 114.8C248.7 102.7 284.3 71.3 320 61.3C355.7 51.3 391.3 62.7 426.8 80.7C462.3 98.7 497.7 123.3 533.2 119.5C568.7 115.7 604.3 83.3 640 70.5C675.7 57.7 711.3 64.3 746.8 73.3C782.3 82.3 817.7 93.7 853.2 92.2C888.7 90.7 924.3 76.3 942.2 69.2L960 62L960 301L942.2 301C924.3 301 888.7 301 853.2 301C817.7 301 782.3 301 746.8 301C711.3 301 675.7 301 640 301C604.3 301 568.7 301 533.2 301C497.7 301 462.3 301 426.8 301C391.3 301 355.7 301 320 301C284.3 301 248.7 301 213.2 301C177.7 301 142.3 301 106.8 301C71.3 301 35.7 301 17.8 301L0 301Z" fill="#0f9911"></path><path d="M0 155L17.8 156.8C35.7 158.7 71.3 162.3 106.8 160.8C142.3 159.3 177.7 152.7 213.2 149.8C248.7 147 284.3 148 320 142.8C355.7 137.7 391.3 126.3 426.8 123C462.3 119.7 497.7 124.3 533.2 125.3C568.7 126.3 604.3 123.7 640 131.2C675.7 138.7 711.3 156.3 746.8 153.5C782.3 150.7 817.7 127.3 853.2 122.7C888.7 118 924.3 132 942.2 139L960 146L960 301L942.2 301C924.3 301 888.7 301 853.2 301C817.7 301 782.3 301 746.8 301C711.3 301 675.7 301 640 301C604.3 301 568.7 301 533.2 301C497.7 301 462.3 301 426.8 301C391.3 301 355.7 301 320 301C284.3 301 248.7 301 213.2 301C177.7 301 142.3 301 106.8 301C71.3 301 35.7 301 17.8 301L0 301Z" fill="#797c00"></path><path d="M0 192L17.8 192.5C35.7 193 71.3 194 106.8 194.5C142.3 195 177.7 195 213.2 185.3C248.7 175.7 284.3 156.3 320 154.7C355.7 153 391.3 169 426.8 166.5C462.3 164 497.7 143 533.2 139.8C568.7 136.7 604.3 151.3 640 163.2C675.7 175 711.3 184 746.8 176.5C782.3 169 817.7 145 853.2 142.8C888.7 140.7 924.3 160.3 942.2 170.2L960 180L960 301L942.2 301C924.3 301 888.7 301 853.2 301C817.7 301 782.3 301 746.8 301C711.3 301 675.7 301 640 301C604.3 301 568.7 301 533.2 301C497.7 301 462.3 301 426.8 301C391.3 301 355.7 301 320 301C284.3 301 248.7 301 213.2 301C177.7 301 142.3 301 106.8 301C71.3 301 35.7 301 17.8 301L0 301Z" fill="#a65500"></path><path d="M0 191L17.8 197.2C35.7 203.3 71.3 215.7 106.8 209.7C142.3 203.7 177.7 179.3 213.2 176.2C248.7 173 284.3 191 320 194.5C355.7 198 391.3 187 426.8 183.3C462.3 179.7 497.7 183.3 533.2 186.7C568.7 190 604.3 193 640 195C675.7 197 711.3 198 746.8 195.3C782.3 192.7 817.7 186.3 853.2 189C888.7 191.7 924.3 203.3 942.2 209.2L960 215L960 301L942.2 301C924.3 301 888.7 301 853.2 301C817.7 301 782.3 301 746.8 301C711.3 301 675.7 301 640 301C604.3 301 568.7 301 533.2 301C497.7 301 462.3 301 426.8 301C391.3 301 355.7 301 320 301C284.3 301 248.7 301 213.2 301C177.7 301 142.3 301 106.8 301C71.3 301 35.7 301 17.8 301L0 301Z" fill="#b81e22"></path><path d="M0 249L17.8 245.8C35.7 242.7 71.3 236.3 106.8 232.8C142.3 229.3 177.7 228.7 213.2 230.5C248.7 232.3 284.3 236.7 320 237.7C355.7 238.7 391.3 236.3 426.8 235.3C462.3 234.3 497.7 234.7 533.2 229.5C568.7 224.3 604.3 213.7 640 207.7C675.7 201.7 711.3 200.3 746.8 202.2C782.3 204 817.7 209 853.2 209.2C888.7 209.3 924.3 204.7 942.2 202.3L960 200L960 301L942.2 301C924.3 301 888.7 301 853.2 301C817.7 301 782.3 301 746.8 301C711.3 301 675.7 301 640 301C604.3 301 568.7 301 533.2 301C497.7 301 462.3 301 426.8 301C391.3 301 355.7 301 320 301C284.3 301 248.7 301 213.2 301C177.7 301 142.3 301 106.8 301C71.3 301 35.7 301 17.8 301L0 301Z" fill="#ae0053"></path><path d="M0 263L17.8 259.8C35.7 256.7 71.3 250.3 106.8 247C142.3 243.7 177.7 243.3 213.2 243C248.7 242.7 284.3 242.3 320 242C355.7 241.7 391.3 241.3 426.8 247C462.3 252.7 497.7 264.3 533.2 264.3C568.7 264.3 604.3 252.7 640 252.2C675.7 251.7 711.3 262.3 746.8 262C782.3 261.7 817.7 250.3 853.2 248.7C888.7 247 924.3 255 942.2 259L960 263L960 301L942.2 301C924.3 301 888.7 301 853.2 301C817.7 301 782.3 301 746.8 301C711.3 301 675.7 301 640 301C604.3 301 568.7 301 533.2 301C497.7 301 462.3 301 426.8 301C391.3 301 355.7 301 320 301C284.3 301 248.7 301 213.2 301C177.7 301 142.3 301 106.8 301C71.3 301 35.7 301 17.8 301L0 301Z" fill="#800080"></path></svg>