<svg id="visual" viewBox="0 0 960 300" width="960" height="300" xmlns="http://www.w3.org/2000/svg" xmlns:xlink="http://www.w3.org/1999/xlink" version="1.1"><rect x="0" y="0" width="960" height="300" fill="#800080"></rect><path d="M0 67L17.8 73.7C35.7 80.3 71.3 93.7 106.8 103.7C142.3 113.7 177.7 120.3 213.2 116.7C248.7 113 284.3 99 320 89.2C355.7 79.3 391.3 73.7 426.8 82.8C462.3 92 497.7 116 533.2 120.8C568.7 125.7 604.3 111.3 640 104.3C675.7 97.3 711.3 97.7 746.8 91.7C782.3 85.7 817.7 73.3 853.2 76C888.7 78.7 924.3 96.3 942.2 105.2L960 114L960 301L942.2 301C924.3 301 888.7 301 853.2 301C817.7 301 782.3 301 746.8 301C711.3 301 675.7 301 640 301C604.3 301 568.7 301 533.2 301C497.7 301 462.3 301 426.8 301C391.3 301 355.7 301 320 301C284.3 301 248.7 301 213.2 301C177.7 301 142.3 301 106.8 301C71.3 301 35.7 301 17.8 301L0 301Z" fill="#a11ea1"></path><path d="M0 145L17.8 147C35.7 149 71.3 153 106.8 156C142.3 159 177.7 161 213.2 150.7C248.7 140.3 284.3 117.7 320 120.2C355.7 122.7 391.3 150.3 426.8 157.7C462.3 165 497.7 152 533.2 140.7C568.7 129.3 604.3 119.7 640 111.7C675.7 103.7 711.3 97.3 746.8 99.5C782.3 101.7 817.7 112.3 853.2 126C888.7 139.7 924.3 156.3 942.2 164.7L960 173L960 301L942.2 301C924.3 301 888.7 301 853.2 301C817.7 301 782.3 301 746.8 301C711.3 301 675.7 301 640 301C604.3 301 568.7 301 533.2 301C497.7 301 462.3 301 426.8 301C391.3 301 355.7 301 320 301C284.3 301 248.7 301 213.2 301C177.7 301 142.3 301 106.8 301C71.3 301 35.7 301 17.8 301L0 301Z" fill="#b656b4"></path><path d="M0 151L17.8 150.8C35.7 150.7 71.3 150.3 106.8 150.2C142.3 150 177.7 150 213.2 155.7C248.7 161.3 284.3 172.7 320 168.5C355.7 164.3 391.3 144.7 426.8 145.8C462.3 147 497.7 169 533.2 170C568.7 171 604.3 151 640 140.3C675.7 129.7 711.3 128.3 746.8 140C782.3 151.7 817.7 176.3 853.2 175.2C888.7 174 924.3 147 942.2 133.5L960 120L960 301L942.2 301C924.3 301 888.7 301 853.2 301C817.7 301 782.3 301 746.8 301C711.3 301 675.7 301 640 301C604.3 301 568.7 301 533.2 301C497.7 301 462.3 301 426.8 301C391.3 301 355.7 301 320 301C284.3 301 248.7 301 213.2 301C177.7 301 142.3 301 106.8 301C71.3 301 35.7 301 17.8 301L0 301Z" fill="#ca81c7"></path><path d="M0 174L17.8 174C35.7 174 71.3 174 106.8 181.5C142.3 189 177.7 204 213.2 213.3C248.7 222.7 284.3 226.3 320 224.7C355.7 223 391.3 216 426.8 213.5C462.3 211 497.7 213 533.2 208.7C568.7 204.3 604.3 193.7 640 185.8C675.7 178 711.3 173 746.8 169.3C782.3 165.7 817.7 163.3 853.2 171.8C888.7 180.3 924.3 199.7 942.2 209.3L960 219L960 301L942.2 301C924.3 301 888.7 301 853.2 301C817.7 301 782.3 301 746.8 301C711.3 301 675.7 301 640 301C604.3 301 568.7 301 533.2 301C497.7 301 462.3 301 426.8 301C391.3 301 355.7 301 320 301C284.3 301 248.7 301 213.2 301C177.7 301 142.3 301 106.8 301C71.3 301 35.7 301 17.8 301L0 301Z" fill="#ddabd9"></path><path d="M0 197L17.8 203.8C35.7 210.7 71.3 224.3 106.8 227.7C142.3 231 177.7 224 213.2 218C248.7 212 284.3 207 320 204C355.7 201 391.3 200 426.8 202.8C462.3 205.7 497.7 212.3 533.2 218.5C568.7 224.7 604.3 230.3 640 229.7C675.7 229 711.3 222 746.8 223.5C782.3 225 817.7 235 853.2 236.7C888.7 238.3 924.3 231.7 942.2 228.3L960 225L960 301L942.2 301C924.3 301 888.7 301 853.2 301C817.7 301 782.3 301 746.8 301C711.3 301 675.7 301 640 301C604.3 301 568.7 301 533.2 301C497.7 301 462.3 301 426.8 301C391.3 301 355.7 301 320 301C284.3 301 248.7 301 213.2 301C177.7 301 142.3 301 106.8 301C71.3 301 35.7 301 17.8 301L0 301Z" fill="#efd5ec"></path><path d="M0 246L17.8 245C35.7 244 71.3 242 106.8 242.3C142.3 242.7 177.7 245.3 213.2 251.8C248.7 258.3 284.3 268.7 320 273.3C355.7 278 391.3 277 426.8 269.5C462.3 262 497.7 248 533.2 242.8C568.7 237.7 604.3 241.3 640 245.2C675.7 249 711.3 253 746.8 256.5C782.3 260 817.7 263 853.2 262C888.7 261 924.3 256 942.2 253.5L960 251L960 301L942.2 301C924.3 301 888.7 301 853.2 301C817.7 301 782.3 301 746.8 301C711.3 301 675.7 301 640 301C604.3 301 568.7 301 533.2 301C497.7 301 462.3 301 426.8 301C391.3 301 355.7 301 320 301C284.3 301 248.7 301 213.2 301C177.7 301 142.3 301 106.8 301C71.3 301 35.7 301 17.8 301L0 301Z" fill="#ffffff"></path></svg>