<svg id="visual" viewBox="0 0 960 300" width="960" height="300" xmlns="http://www.w3.org/2000/svg" xmlns:xlink="http://www.w3.org/1999/xlink" version="1.1"><rect x="0" y="0" width="960" height="300" fill="#dc143c"></rect><path d="M0 122L17.8 118.2C35.7 114.3 71.3 106.7 106.8 93.5C142.3 80.3 177.7 61.7 213.2 53.2C248.7 44.7 284.3 46.3 320 48.7C355.7 51 391.3 54 426.8 60C462.3 66 497.7 75 533.2 77C568.7 79 604.3 74 640 75.5C675.7 77 711.3 85 746.8 82.5C782.3 80 817.7 67 853.2 63.5C888.7 60 924.3 66 942.2 69L960 72L960 301L942.2 301C924.3 301 888.7 301 853.2 301C817.7 301 782.3 301 746.8 301C711.3 301 675.7 301 640 301C604.3 301 568.7 301 533.2 301C497.7 301 462.3 301 426.8 301C391.3 301 355.7 301 320 301C284.3 301 248.7 301 213.2 301C177.7 301 142.3 301 106.8 301C71.3 301 35.7 301 17.8 301L0 301Z" fill="#aa1230"></path><path d="M0 78L17.8 83.5C35.7 89 71.3 100 106.8 109.5C142.3 119 177.7 127 213.2 132.8C248.7 138.7 284.3 142.3 320 133C355.7 123.7 391.3 101.3 426.8 95.8C462.3 90.3 497.7 101.7 533.2 110.2C568.7 118.7 604.3 124.3 640 132.5C675.7 140.7 711.3 151.3 746.8 147.3C782.3 143.3 817.7 124.7 853.2 118.7C888.7 112.7 924.3 119.3 942.2 122.7L960 126L960 301L942.2 301C924.3 301 888.7 301 853.2 301C817.7 301 782.3 301 746.8 301C711.3 301 675.7 301 640 301C604.3 301 568.7 301 533.2 301C497.7 301 462.3 301 426.8 301C391.3 301 355.7 301 320 301C284.3 301 248.7 301 213.2 301C177.7 301 142.3 301 106.8 301C71.3 301 35.7 301 17.8 301L0 301Z" fill="#a23a17"></path><path d="M0 151L17.8 158.2C35.7 165.3 71.3 179.7 106.8 187.5C142.3 195.3 177.7 196.7 213.2 186.2C248.7 175.7 284.3 153.3 320 149.7C355.7 146 391.3 161 426.8 161.2C462.3 161.3 497.7 146.7 533.2 139C568.7 131.3 604.3 130.7 640 128.5C675.7 126.3 711.3 122.7 746.8 122.7C782.3 122.7 817.7 126.3 853.2 126.5C888.7 126.7 924.3 123.3 942.2 121.7L960 120L960 301L942.2 301C924.3 301 888.7 301 853.2 301C817.7 301 782.3 301 746.8 301C711.3 301 675.7 301 640 301C604.3 301 568.7 301 533.2 301C497.7 301 462.3 301 426.8 301C391.3 301 355.7 301 320 301C284.3 301 248.7 301 213.2 301C177.7 301 142.3 301 106.8 301C71.3 301 35.7 301 17.8 301L0 301Z" fill="#945402"></path><path d="M0 221L17.8 213.8C35.7 206.7 71.3 192.3 106.8 181.2C142.3 170 177.7 162 213.2 162C248.7 162 284.3 170 320 179.3C355.7 188.7 391.3 199.3 426.8 199.5C462.3 199.7 497.7 189.3 533.2 191.5C568.7 193.7 604.3 208.3 640 206.3C675.7 204.3 711.3 185.7 746.8 181.5C782.3 177.3 817.7 187.7 853.2 194.2C888.7 200.7 924.3 203.3 942.2 204.7L960 206L960 301L942.2 301C924.3 301 888.7 301 853.2 301C817.7 301 782.3 301 746.8 301C711.3 301 675.7 301 640 301C604.3 301 568.7 301 533.2 301C497.7 301 462.3 301 426.8 301C391.3 301 355.7 301 320 301C284.3 301 248.7 301 213.2 301C177.7 301 142.3 301 106.8 301C71.3 301 35.7 301 17.8 301L0 301Z" fill="#816900"></path><path d="M0 218L17.8 214.3C35.7 210.7 71.3 203.3 106.8 208C142.3 212.7 177.7 229.3 213.2 237.5C248.7 245.7 284.3 245.3 320 243.5C355.7 241.7 391.3 238.3 426.8 237.3C462.3 236.3 497.7 237.7 533.2 235C568.7 232.3 604.3 225.7 640 227C675.7 228.3 711.3 237.7 746.8 242.5C782.3 247.3 817.7 247.7 853.2 244.3C888.7 241 924.3 234 942.2 230.5L960 227L960 301L942.2 301C924.3 301 888.7 301 853.2 301C817.7 301 782.3 301 746.8 301C711.3 301 675.7 301 640 301C604.3 301 568.7 301 533.2 301C497.7 301 462.3 301 426.8 301C391.3 301 355.7 301 320 301C284.3 301 248.7 301 213.2 301C177.7 301 142.3 301 106.8 301C71.3 301 35.7 301 17.8 301L0 301Z" fill="#617c00"></path><path d="M0 265L17.8 260C35.7 255 71.3 245 106.8 244.7C142.3 244.3 177.7 253.7 213.2 255.2C248.7 256.7 284.3 250.3 320 248C355.7 245.7 391.3 247.3 426.8 247.3C462.3 247.3 497.7 245.7 533.2 245.3C568.7 245 604.3 246 640 252.2C675.7 258.3 711.3 269.7 746.8 274.8C782.3 280 817.7 279 853.2 271.8C888.7 264.7 924.3 251.3 942.2 244.7L960 238L960 301L942.2 301C924.3 301 888.7 301 853.2 301C817.7 301 782.3 301 746.8 301C711.3 301 675.7 301 640 301C604.3 301 568.7 301 533.2 301C497.7 301 462.3 301 426.8 301C391.3 301 355.7 301 320 301C284.3 301 248.7 301 213.2 301C177.7 301 142.3 301 106.8 301C71.3 301 35.7 301 17.8 301L0 301Z" fill="#208c22"></path></svg>